<svg width="100" height="100" viewBox="0 0 100 100" fill="none" xmlns="http://www.w3.org/2000/svg">
<path opacity="0.08" d="M10.8961 100C4.90988 100 0 95.0363 0 88.9843V11.0159C0 4.96392 4.90988 0.000118583 10.8961 0.000118583H89.1039C95.0901 0.000118583 100 4.96392 100 11.0159V88.9843C100 95.0363 95.0901 100 89.1039 100H10.8961Z" fill="url(#paint0_linear_198_73)"/>
<path opacity="0.1" d="M10.8961 98.902C5.49581 98.902 1.08618 94.4439 1.08618 88.9843V11.0159C1.08618 5.55633 5.49581 1.09828 10.8961 1.09828H89.1038C94.5041 1.09828 98.9137 5.55633 98.9137 11.0159V88.9843C98.9137 94.4439 94.5041 98.902 89.1038 98.902H10.8961Z" fill="url(#paint1_linear_198_73)"/>
<path opacity="0.2" d="M10.8963 97.7694C6.10701 97.7694 2.20654 93.8261 2.20654 88.9842V11.0158C2.20654 6.17394 6.10701 2.23064 10.8963 2.23064H89.104C93.8933 2.23064 97.7938 6.17394 97.7938 11.0158V88.9842C97.7938 93.8261 93.8933 97.7694 89.104 97.7694H10.8963Z" fill="url(#paint2_linear_198_73)"/>
<path opacity="0.3" d="M89.104 96.6711H10.8963C6.69694 96.6711 3.29272 93.2295 3.29272 88.9841V11.0157C3.29272 6.77026 6.69694 3.32867 10.8963 3.32867H89.104C93.3033 3.32867 96.7075 6.77026 96.7075 11.0157V88.9841C96.7075 93.2295 93.3033 96.6711 89.104 96.6711Z" fill="url(#paint3_linear_198_73)"/>
<path opacity="0.45" d="M89.1038 95.573H10.8961C7.29668 95.573 4.37878 92.6231 4.37878 88.9841V9.91755C4.37878 6.27861 7.29668 3.32867 10.8961 3.32867H89.1038C92.7032 3.32867 95.6211 6.27861 95.6211 9.91755V88.9841C95.6211 92.6231 92.7032 95.573 89.1038 95.573Z" fill="url(#paint4_linear_198_73)"/>
<path d="M89.1038 2.23083H10.8961C7.29668 2.23083 4.37878 5.18078 4.37878 8.81972V87.8863C4.37878 91.5252 7.29668 94.4752 10.8961 94.4752H89.1038C92.7032 94.4752 95.6211 91.5252 95.6211 87.8863V8.81972C95.6211 5.18078 92.7032 2.23083 89.1038 2.23083Z" fill="url(#paint5_linear_198_73)"/>
<path opacity="0.25" d="M10.8961 2.23083C7.28551 2.23083 4.37878 5.16948 4.37878 8.81972V11.016V85.69V87.8863C4.37878 88.2539 4.4237 88.6009 4.48062 88.9501C4.53352 89.2747 4.58602 89.6056 4.68428 89.911C4.69501 89.9444 4.70698 89.9808 4.71823 90.014C4.82562 90.33 4.97336 90.6151 5.12556 90.9062C5.28262 91.2065 5.46839 91.4944 5.66867 91.7641C5.86895 92.0339 6.07467 92.2841 6.31361 92.5191C6.79149 92.9892 7.33782 93.4136 7.94294 93.7202C8.2455 93.8735 8.56586 93.9914 8.89338 94.0977C8.61509 93.9876 8.36471 93.8382 8.11266 93.6859C8.10461 93.6811 8.08674 93.6908 8.07872 93.6859C8.04403 93.6647 8.01105 93.6392 7.97688 93.6172C7.84611 93.533 7.72594 93.4377 7.6035 93.3427C7.48817 93.254 7.37183 93.1658 7.26405 93.0682C7.07078 92.8909 6.88664 92.6889 6.72094 92.4848C6.60409 92.3417 6.48372 92.1935 6.3815 92.0387C6.35425 91.9965 6.33974 91.9444 6.31361 91.9014C6.24326 91.7882 6.17216 91.6768 6.10995 91.5582C6.00023 91.3444 5.88654 91.1017 5.80445 90.8719C5.7958 90.8479 5.77882 90.8274 5.7705 90.8032C5.73593 90.7023 5.73161 90.5981 5.70261 90.4944C5.66967 90.3773 5.62615 90.2714 5.60078 90.1512C5.52162 89.7762 5.465 89.3845 5.465 88.9844V86.7881V12.1142V9.91786C5.465 6.86299 7.8744 4.42713 10.8961 4.42713H13.0685H86.9314H89.1038C92.1255 4.42713 94.5349 6.86299 94.5349 9.91786V12.1142V86.7881V88.9844C94.5349 89.3845 94.4783 89.7762 94.3992 90.1512C94.3512 90.3784 94.3032 90.5879 94.2294 90.8032C94.2211 90.8274 94.2041 90.8479 94.1955 90.8719C94.1273 91.0627 94.0452 91.2754 93.9579 91.4553C93.9127 91.5462 93.872 91.6419 93.8221 91.7298C93.7628 91.8366 93.6844 91.9366 93.6184 92.0387C93.5162 92.1935 93.3958 92.3417 93.279 92.4848C93.1235 92.6764 92.9497 92.8658 92.7698 93.0339C92.7577 93.0451 92.7481 93.0571 92.7359 93.0682C92.5856 93.2061 92.4262 93.3256 92.2607 93.4457C92.1492 93.526 92.0387 93.6141 91.9212 93.6859C91.9132 93.6908 91.8953 93.6811 91.8873 93.6859C91.6352 93.8382 91.3848 93.9876 91.1066 94.0977C91.4341 93.9914 91.7544 93.8735 92.057 93.7202C92.6621 93.4136 93.2084 92.9892 93.6863 92.5191C93.9253 92.2841 94.131 92.0339 94.3313 91.7641C94.5315 91.4944 94.7173 91.2065 94.8744 90.9062C95.0266 90.6151 95.1743 90.33 95.2817 90.014C95.293 89.9802 95.3049 89.9451 95.3156 89.911C95.4139 89.6056 95.4664 89.2747 95.5193 88.9501C95.5762 88.6009 95.6211 88.2539 95.6211 87.8863V85.69V11.016V8.81972C95.6211 5.16948 92.7144 2.23083 89.1038 2.23083H10.8961Z" fill="url(#paint6_linear_198_73)"/>
<path opacity="0.15" d="M10.8961 94.475C7.28551 94.475 4.37878 91.5364 4.37878 87.8861V85.6898V11.0158V8.81955C4.37878 8.45197 4.4237 8.10498 4.48062 7.75572C4.53352 7.43111 4.58602 7.10022 4.68428 6.79484C4.69501 6.76148 4.70698 6.725 4.71823 6.69189C4.82562 6.37587 4.97336 6.09071 5.12556 5.79964C5.28262 5.49929 5.46839 5.21146 5.66867 4.94172C5.86895 4.67197 6.07467 4.42177 6.31361 4.18674C6.79149 3.71667 7.33782 3.29227 7.94294 2.98564C8.2455 2.83233 8.56586 2.71446 8.89338 2.60815C8.61509 2.71821 8.36471 2.86762 8.11266 3.01996C8.10461 3.02479 8.08674 3.01502 8.07872 3.01996C8.04403 3.04115 8.01105 3.06664 7.97688 3.08859C7.84611 3.17282 7.72594 3.26815 7.6035 3.36313C7.48817 3.45186 7.37183 3.54005 7.26405 3.63767C7.07078 3.81494 6.88664 4.01695 6.72094 4.22106C6.60409 4.3641 6.48372 4.51238 6.3815 4.66718C6.35425 4.70933 6.33974 4.76148 6.31361 4.80445C6.24326 4.91759 6.17216 5.02904 6.10995 5.14762C6.00023 5.36143 5.88654 5.60412 5.80445 5.83396C5.7958 5.85791 5.77882 5.87849 5.7705 5.9026C5.73593 6.00357 5.73161 6.10776 5.70261 6.21145C5.66967 6.32853 5.62615 6.43441 5.60078 6.55462C5.52162 6.92965 5.465 7.32135 5.465 7.7214V9.91769V84.5917V86.788C5.465 89.8429 7.8744 92.2787 10.8961 92.2787H13.0685H86.9314H89.1038C92.1255 92.2787 94.5349 89.8429 94.5349 86.788V84.5917V9.91769V7.7214C94.5349 7.32135 94.4783 6.92965 94.3992 6.55462C94.3512 6.32742 94.3032 6.11793 94.2294 5.9026C94.2211 5.87849 94.2041 5.85791 94.1955 5.83396C94.1273 5.64317 94.0452 5.43045 93.9579 5.25057C93.9127 5.15964 93.872 5.06394 93.8221 4.97603C93.7628 4.86928 93.6844 4.7692 93.6184 4.66718C93.5162 4.51238 93.3958 4.3641 93.279 4.22106C93.1235 4.02949 92.9497 3.84 92.7698 3.67198C92.7577 3.66078 92.7481 3.64876 92.7359 3.63767C92.5856 3.49979 92.4262 3.38022 92.2607 3.26018C92.1492 3.17985 92.0387 3.09176 91.9212 3.01996C91.9132 3.01502 91.8953 3.02479 91.8873 3.01996C91.6352 2.86762 91.3848 2.71821 91.1066 2.60815C91.4341 2.71445 91.7544 2.83233 92.057 2.98564C92.6621 3.29227 93.2084 3.71667 93.6863 4.18674C93.9253 4.42177 94.131 4.67197 94.3313 4.94172C94.5315 5.21146 94.7173 5.49929 94.8744 5.79964C95.0266 6.09071 95.1743 6.37587 95.2817 6.69189C95.293 6.72569 95.3049 6.76079 95.3156 6.79484C95.4139 7.10022 95.4664 7.43111 95.5193 7.75572C95.5762 8.10498 95.6211 8.45197 95.6211 8.81955V11.0158V85.6898V87.8861C95.6211 91.5364 92.7144 94.475 89.1038 94.475H10.8961Z" fill="url(#paint7_radial_198_73)"/>
<path d="M83.3005 56.2038C78.6263 54.6107 73.9445 54.095 69.5824 54.3105C65.5476 54.3875 61.353 55.134 57.0442 56.5193L55.5369 57.0658L66.9255 60.66L69.9934 59.5517C69.9934 59.5517 71.4094 59.0437 72.9015 58.8205C74.8123 58.5435 76.7536 59.0283 76.7536 59.0283C77.8346 59.29 78.4131 59.5517 78.6263 60.0751C78.8242 60.7061 78.101 61.2295 76.5404 61.7605L73.7617 62.8303L84.6099 66.2552C88.3477 64.7467 90.0454 63.1305 89.8475 61.1294C89.7409 59.1361 87.4494 57.566 83.3005 56.2038Z" fill="#1565C0"/>
<path d="M46.9877 54.3644V48.2689L37.4794 51.3552L46.9877 54.3644Z" fill="#1565C0"/>
<path d="M40.5931 62.4454L37.9286 63.3998L35.5002 64.2849L32.8966 65.3316C32.8966 65.3316 30.5519 66.0473 28.5345 66.1782C26.5248 66.309 24.378 65.6471 24.378 65.6471C23.5101 65.3239 23.335 64.6004 23.8603 64.0771C24.378 63.7615 25.1088 63.3382 25.9386 63.015L28.7401 61.976L33.734 60.2751L22.4824 56.7117L20.427 57.4582L17.831 58.5126C13.8876 60.1904 11.8017 61.976 11.9083 63.5537C12.1139 65.8549 14.7174 67.5404 19.3916 68.8103C25.4666 70.465 31.6329 70.8037 37.9362 69.8416C37.9362 69.8416 42.8921 68.895 51.7686 65.9781L40.5931 62.4454Z" fill="#FF9800"/>
<path d="M59.2976 68.3563L54.0144 70.3805V77.8228L64.3906 73.7438L69.9783 71.735L59.2976 68.3563Z" fill="#FF9800"/>
<path d="M46.9878 54.3644L37.4795 51.3551L35.5002 52.0016L22.4824 56.7194L33.734 60.2752L46.9878 55.7574V54.3644Z" fill="#00BCD4"/>
<path d="M66.9258 60.6678L55.5372 57.0659L40.5934 62.4457L51.7765 65.9783C53.4056 65.4472 55.1565 64.8469 57.0445 64.1696C59.0999 63.4462 65.6241 61.1373 65.6241 61.1373L66.9258 60.6678Z" fill="#00BCD4"/>
<path d="M73.7617 62.8303L72.6959 63.2382L59.2975 68.3563L69.9782 71.735L81.9454 67.4404L84.0236 66.5015C84.2292 66.4245 84.4119 66.3399 84.6098 66.2629L73.7617 62.8303Z" fill="#00BCD4"/>
<path d="M70.77 27.2348C68.5775 24.2486 64.7407 21.8089 59.0464 19.8155C51.9361 17.4912 45.9601 15.798 41.1412 14.7744V73.8361L54.0144 77.8228V28.6817C54.0144 27.3502 54.121 26.4574 54.6691 25.9033C55.2172 25.1337 55.7653 25.0259 56.5342 25.3569C58.3917 25.9033 59.2672 27.5734 59.2672 30.3364V50.4931C63.4313 52.4864 67.1616 52.7019 69.8945 50.6085C72.7417 48.6075 74.2719 45.0672 74.2719 39.7567C74.2719 34.2154 73.1756 30.0132 70.77 27.2348Z" fill="#F44336"/>
<defs>
<linearGradient id="paint0_linear_198_73" x1="32.4859" y1="96.525" x2="32.4859" y2="3.06373" gradientUnits="userSpaceOnUse">
<stop/>
<stop offset="1" stop-opacity="0.588235"/>
</linearGradient>
<linearGradient id="paint1_linear_198_73" x1="32.4858" y1="96.525" x2="32.4858" y2="3.06373" gradientUnits="userSpaceOnUse">
<stop/>
<stop offset="1" stop-opacity="0.588235"/>
</linearGradient>
<linearGradient id="paint2_linear_198_73" x1="32.486" y1="96.5249" x2="32.486" y2="3.06364" gradientUnits="userSpaceOnUse">
<stop/>
<stop offset="1" stop-opacity="0.588235"/>
</linearGradient>
<linearGradient id="paint3_linear_198_73" x1="32.486" y1="96.5248" x2="32.486" y2="3.06351" gradientUnits="userSpaceOnUse">
<stop/>
<stop offset="1" stop-opacity="0.588235"/>
</linearGradient>
<linearGradient id="paint4_linear_198_73" x1="32.8931" y1="95.4284" x2="32.8931" y2="3.06664" gradientUnits="userSpaceOnUse">
<stop/>
<stop offset="1" stop-opacity="0.588235"/>
</linearGradient>
<linearGradient id="paint5_linear_198_73" x1="50" y1="94.4752" x2="50" y2="2.21735" gradientUnits="userSpaceOnUse">
<stop stop-color="#141414"/>
<stop offset="1" stop-color="#505050"/>
</linearGradient>
<linearGradient id="paint6_linear_198_73" x1="37.3533" y1="2.23083" x2="37.3533" y2="65.806" gradientUnits="userSpaceOnUse">
<stop stop-color="#FEFEFE"/>
<stop offset="1" stop-color="#FEFEFE" stop-opacity="0"/>
</linearGradient>
<radialGradient id="paint7_radial_198_73" cx="0" cy="0" r="1" gradientUnits="userSpaceOnUse" gradientTransform="translate(50 94.475) scale(52.798 45.9334)">
<stop stop-color="#FEFEFE"/>
<stop offset="1" stop-color="#FEFEFE" stop-opacity="0"/>
</radialGradient>
</defs>
</svg>
