<svg width="100" height="100" viewBox="0 0 100 100" fill="none" xmlns="http://www.w3.org/2000/svg">
<g clip-path="url(#clip0_198_49)">
<path d="M17.7086 1.25H82.2914C92.0836 1.25 100 9.36939 100 19.4127V83.0873C100 93.1306 92.0836 101.25 82.2914 101.25H17.7086C7.91641 101.25 0 93.1306 0 83.0873V19.4127C0 9.36939 7.91641 1.25 17.7086 1.25Z" fill="#001E36"/>
<path d="M35.8336 26.0414C34.5836 26.0414 33.3336 26.0414 32.0422 26.0836C30.75 26.125 29.5414 26.125 28.4164 26.1672C27.2914 26.2086 26.25 26.2086 25.25 26.25C24.2914 26.2914 23.625 26.2914 22.9164 26.2914C22.625 26.2914 22.5 26.4578 22.5 26.75V69.625C22.5 70 22.6664 70.1672 23 70.1672H31.0836C31.375 70.125 31.5836 69.875 31.5414 69.5836V56.2086C32.3328 56.2086 32.9164 56.2086 33.3336 56.25C33.75 56.2914 34.4164 56.2914 35.4164 56.2914C38.8336 56.2914 41.9586 55.9164 44.7914 54.875C47.5 53.875 49.8336 52.125 51.5 49.7914C53.1667 47.458 54 44.4997 54 40.9164C54 39.0414 53.6672 37.25 53.0422 35.5C52.3799 33.7171 51.3425 32.0972 50 30.75C48.4155 29.2106 46.5082 28.0433 44.4164 27.3328C42.0828 26.4578 39.25 26.0414 35.8336 26.0414ZM36.7633 34.2484C38.2477 34.2765 39.693 34.5359 41.0414 35.0828C42.25 35.5414 43.25 36.375 43.9586 37.4578C44.6232 38.5784 44.9556 39.8649 44.9172 41.1672C44.9172 43 44.5 44.4172 43.625 45.4586C42.7078 46.5 41.5414 47.2922 40.2086 47.6672C38.6664 48.1672 37.0414 48.4164 35.4164 48.4164H33.2078C32.7078 48.4164 32.1672 48.375 31.5836 48.3336V34.3336C31.875 34.2914 32.4586 34.25 33.2922 34.2922C34.0836 34.25 35.0414 34.25 36.125 34.25C36.3385 34.2448 36.5513 34.2442 36.7633 34.2484ZM71.7086 36.3758C68.75 36.3758 66.2914 36.8336 64.3336 37.8336C62.5422 38.6672 61 40 59.9586 41.6664C59.0422 43.2086 58.5414 44.9164 58.5414 46.7086C58.5058 48.1826 58.8351 49.6426 59.5 50.9586C60.2793 52.3599 61.3613 53.5697 62.6672 54.5C64.5001 55.7536 66.4891 56.7622 68.5836 57.5C70.625 58.2914 72 58.9164 72.6672 59.4578C73.3336 60 73.6672 60.5414 73.6672 61.125C73.6672 61.875 73.2086 62.5836 72.5422 62.875C71.7922 63.25 70.6672 63.4586 69.0836 63.4586C67.4172 63.4586 65.75 63.25 64.1664 62.8336C62.3481 62.4275 60.6048 61.7386 59 60.7922C58.875 60.7086 58.75 60.6672 58.625 60.7508C58.5 60.8336 58.4586 61 58.4586 61.125V68.375C58.4172 68.7086 58.625 69 58.9172 69.1664C60.2684 69.7976 61.6976 70.2461 63.1672 70.5C65.0422 70.875 66.9164 71.0414 68.8328 71.0414C71.8328 71.0414 74.3336 70.5836 76.375 69.7086C78.25 68.9586 79.875 67.6672 81.0414 66C82.1338 64.361 82.7007 62.428 82.6664 60.4586C82.7075 58.9708 82.3784 57.4962 81.7086 56.1672C80.9164 54.75 79.7914 53.5836 78.4164 52.7086C76.4049 51.4454 74.2512 50.4242 72 49.6664C70.9947 49.2503 70.0076 48.7915 69.0414 48.2914C68.5 48 68 47.625 67.625 47.1664C67.375 46.8328 67.2086 46.4586 67.2086 46.0836C67.2086 45.7086 67.3336 45.2922 67.5414 44.9586C67.8336 44.5422 68.2914 44.25 68.8328 44.125C69.625 43.9172 70.5 43.7914 71.3328 43.8328C72.9164 43.8328 74.4578 44.0414 76 44.375C77.4172 44.6664 78.75 45.125 80 45.7922C80.1664 45.875 80.375 45.875 80.75 45.7922C80.8151 45.7439 80.8679 45.681 80.9042 45.6085C80.9404 45.536 80.9591 45.456 80.9586 45.375V38.5836C80.9586 38.4164 80.9164 38.25 80.875 38.0836C80.7914 37.9172 80.625 37.75 80.4586 37.7086C79.3094 37.2389 78.1052 36.9168 76.875 36.75C75.1641 36.5009 73.4375 36.3763 71.7086 36.3758Z" fill="#31A8FF"/>
</g>
<defs>
<clipPath id="clip0_198_49">
<rect width="100" height="100" fill="white"/>
</clipPath>
</defs>
</svg>
