<svg width="100" height="100" viewBox="0 0 100 100" fill="none" xmlns="http://www.w3.org/2000/svg">
<path d="M0 33.3333C0 14.9238 14.9238 0 33.3333 0H66.6667C85.0762 0 100 14.9238 100 33.3333V66.6667C100 85.0762 85.0762 100 66.6667 100H33.3333C14.9238 100 0 85.0762 0 66.6667V33.3333Z" fill="#3984FD"/>
<path d="M20.8333 37.4999C20.8333 35.1988 22.6988 33.3333 24.9999 33.3333H49.9999C56.9037 33.3333 62.4999 38.9297 62.4999 45.8333V62.4999C62.4999 64.8012 60.6345 66.6666 58.3333 66.6666H33.3333C26.4297 66.6666 20.8333 61.0703 20.8333 54.1666V37.4999Z" fill="white"/>
<path d="M64.5833 48.9645C64.5833 46.9462 65.3158 44.9962 66.6449 43.477L73.6899 35.426C75.5899 33.2544 79.1666 34.5983 79.1666 37.4838V62.5166C79.1666 65.402 75.5899 66.7457 73.6899 64.5741L66.6449 56.5232C65.3158 55.0041 64.5833 53.0541 64.5833 51.0357V48.9645Z" fill="white"/>
</svg>
